<?xml version="1.0" encoding="UTF-8"?>
<!DOCTYPE svg PUBLIC "-//W3C//DTD SVG 1.1//EN" "http://www.w3.org/Graphics/SVG/1.1/DTD/svg11.dtd">
<!-- Creator: CorelDRAW 2021 (64-Bit) -->
<svg xmlns="http://www.w3.org/2000/svg" xml:space="preserve" width="256px" height="256px" version="1.1" style="shape-rendering:geometricPrecision; text-rendering:geometricPrecision; image-rendering:optimizeQuality; fill-rule:evenodd; clip-rule:evenodd"
viewBox="0 0 29.722 29.722"
 xmlns:xlink="http://www.w3.org/1999/xlink"
 xmlns:xodm="http://www.corel.com/coreldraw/odm/2003">
 <defs>
  <style type="text/css">
   <![CDATA[
    .str0 {stroke:white;stroke-width:0.136;stroke-linecap:round;stroke-linejoin:round;stroke-miterlimit:22.9256}
    .fil0 {fill:white}
   ]]>
  </style>
 </defs>
 <g id="Layer_x0020_1">
  <metadata id="CorelCorpID_0Corel-Layer"/>
  <path class="fil0 str0" d="M29.003 25.86c0.868,0.868 0.868,2.275 0,3.143 -0.868,0.868 -2.275,0.868 -3.143,0 -3.666,-3.667 -7.333,-7.333 -10.999,-11 -3.667,3.667 -7.333,7.333 -11,11 -0.867,0.868 -2.274,0.868 -3.142,0 -0.868,-0.868 -0.868,-2.275 0,-3.143 3.666,-3.666 7.333,-7.333 10.999,-10.999 -3.666,-3.667 -7.333,-7.333 -10.999,-11 -0.868,-0.867 -0.868,-2.274 0,-3.142 0.868,-0.868 2.275,-0.868 3.142,0 3.667,3.666 7.333,7.333 11,10.999 3.666,-3.666 7.333,-7.333 10.999,-10.999 0.868,-0.868 2.275,-0.868 3.143,0 0.868,0.868 0.868,2.275 0,3.142 -3.667,3.667 -7.333,7.333 -11,11 3.667,3.666 7.333,7.333 11,10.999z"/>
 </g>
</svg>
