<?xml version="1.0" encoding="UTF-8"?>
<!DOCTYPE svg PUBLIC "-//W3C//DTD SVG 1.1//EN" "http://www.w3.org/Graphics/SVG/1.1/DTD/svg11.dtd">
<!-- Creator: CorelDRAW 2021 (64-Bit) -->
<svg xmlns="http://www.w3.org/2000/svg" xml:space="preserve" width="256px" height="256px" version="1.1" style="shape-rendering:geometricPrecision; text-rendering:geometricPrecision; image-rendering:optimizeQuality; fill-rule:evenodd; clip-rule:evenodd"
viewBox="0 0 42.399 42.399"
 xmlns:xlink="http://www.w3.org/1999/xlink"
 xmlns:xodm="http://www.corel.com/coreldraw/odm/2003">
 <defs>
  <style type="text/css">
   <![CDATA[
    .str0 {stroke:white;stroke-width:0.143;stroke-linecap:round;stroke-linejoin:round;stroke-miterlimit:22.9256}
    .fil0 {fill:white}
   ]]>
  </style>
 </defs>
 <g id="Layer_x0020_1">
  <metadata id="CorelCorpID_0Corel-Layer"/>
  <path class="fil0 str0" d="M23.547 39.98c0,1.296 -1.051,2.348 -2.347,2.348 -1.297,0 -2.348,-1.052 -2.348,-2.348 0,-5.478 0,-10.955 0,-16.433 -5.478,0 -10.955,0 -16.433,0 -1.296,0 -2.347,-1.051 -2.347,-2.347 0,-1.297 1.051,-2.348 2.347,-2.348 5.478,0 10.955,0 16.433,0 0,-5.478 0,-10.955 0,-16.433 0,-1.296 1.051,-2.347 2.348,-2.347 1.296,0 2.347,1.051 2.347,2.347 0,5.478 0,10.955 0,16.433 5.478,0 10.955,0 16.433,0 1.297,0 2.348,1.051 2.348,2.348 0,1.296 -1.051,2.347 -2.348,2.347 -5.478,0 -10.955,0 -16.433,0 0,5.478 0,10.955 0,16.433z"/>
 </g>
</svg>
