<?xml version="1.0" encoding="UTF-8"?>
<!DOCTYPE svg PUBLIC "-//W3C//DTD SVG 1.1//EN" "http://www.w3.org/Graphics/SVG/1.1/DTD/svg11.dtd">
<!-- Creator: CorelDRAW 2021 (64-Bit) -->
<svg xmlns="http://www.w3.org/2000/svg" xml:space="preserve" width="256px" height="256px" version="1.1" style="shape-rendering:geometricPrecision; text-rendering:geometricPrecision; image-rendering:optimizeQuality; fill-rule:evenodd; clip-rule:evenodd"
viewBox="0 0 30.569 30.569"
 xmlns:xlink="http://www.w3.org/1999/xlink"
 xmlns:xodm="http://www.corel.com/coreldraw/odm/2003">
 <defs>
  <style type="text/css">
   <![CDATA[
    .fil0 {fill:white}
   ]]>
  </style>
 </defs>
 <g id="Layer_x0020_1">
  <metadata id="CorelCorpID_0Corel-Layer"/>
  <path class="fil0" d="M15.284 11.508c2.086,0 3.777,1.691 3.777,3.776 0,2.086 -1.691,3.777 -3.777,3.777 -2.085,0 -3.776,-1.691 -3.776,-3.777 0,-2.085 1.691,-3.776 3.776,-3.776zm0 -11.508c8.442,0 15.285,6.843 15.285,15.284 0,8.442 -6.843,15.285 -15.285,15.285 -8.441,0 -15.284,-6.843 -15.284,-15.285 0,-8.441 6.843,-15.284 15.284,-15.284zm0 3.47c6.525,0 11.815,5.289 11.815,11.814 0,6.525 -5.29,11.815 -11.815,11.815 -6.525,0 -11.814,-5.29 -11.814,-11.815 0,-6.525 5.289,-11.814 11.814,-11.814z"/>
 </g>
</svg>
